<svg width="30" height="24" viewBox="0 0 30 24" fill="none" xmlns="http://www.w3.org/2000/svg">
<mask id="mask0_2278_427" style="mask-type:luminance" maskUnits="userSpaceOnUse" x="0" y="0" width="30" height="24">
<path fill-rule="evenodd" clip-rule="evenodd" d="M0 0H30V23.1766H0V0Z" fill="white"/>
</mask>
<g mask="url(#mask0_2278_427)">
<path fill-rule="evenodd" clip-rule="evenodd" d="M3.21018 1.09916C2.04593 1.09916 1.09863 2.04646 1.09863 3.21071V19.9657C1.09863 21.1301 2.04593 22.0774 3.21018 22.0774H26.7886C27.953 22.0774 28.9003 21.1301 28.9003 19.9657V3.21071C28.9003 2.04646 27.953 1.09916 26.7886 1.09916H3.21018ZM26.7891 23.1766H3.21074C1.44028 23.1766 0 21.7363 0 19.9658V3.21074C0 1.44042 1.44028 0 3.21074 0H26.7891C28.5597 0 30 1.44042 30 3.21074V19.9658C30 21.7363 28.5597 23.1766 26.7891 23.1766Z" fill="#545454"/>
</g>
<path fill-rule="evenodd" clip-rule="evenodd" d="M17.3414 17.88C16.8108 17.88 16.2792 17.708 15.8359 17.3613C15.8093 17.3405 15.7847 17.3173 15.7623 17.2919L8.48667 9.03864C8.0505 8.72077 7.46799 8.69514 7.00606 8.97152L0.953367 15.526L0.145874 14.7803L6.24755 8.17262C6.27743 8.14019 6.31123 8.11147 6.34826 8.08702C7.22597 7.50699 8.37263 7.5526 9.20121 8.20092C9.22773 8.22174 9.25246 8.24496 9.27486 8.27031L16.5503 16.5236C17.0577 16.8932 17.7574 16.8631 18.2304 16.4454L22.0677 13.0637C22.9401 12.2943 24.2443 12.2492 25.1681 12.9564L29.7843 16.4883L29.1166 17.3613L24.5004 13.8293C23.9913 13.4405 23.2745 13.4651 22.7944 13.8883L18.9571 17.2701C18.4972 17.6755 17.9197 17.88 17.3414 17.88Z" fill="#545454"/>
<path fill-rule="evenodd" clip-rule="evenodd" d="M17.2292 4.88538C16.0598 4.88538 15.1082 5.83687 15.1082 7.00634C15.1082 8.17595 16.0598 9.12743 17.2292 9.12743C18.3987 9.12743 19.3503 8.17595 19.3503 7.00634C19.3503 5.83687 18.3987 4.88538 17.2292 4.88538ZM17.2297 10.2266C15.4539 10.2266 14.0094 8.78208 14.0094 7.00634C14.0094 5.23074 15.4539 3.78619 17.2297 3.78619C19.0054 3.78619 20.45 5.23074 20.45 7.00634C20.45 8.78208 19.0054 10.2266 17.2297 10.2266Z" fill="#545454"/>
</svg>
