<svg width="13" height="15" viewBox="0 0 13 15" fill="none" xmlns="http://www.w3.org/2000/svg">
<path d="M2.75006 13.7501H10.7501" stroke="black" stroke-width="0.5" stroke-linecap="round" stroke-linejoin="round"/>
<path d="M11.75 4.5C11.75 4.5 12.5 5.3125 12.5 7.75V14.5H10.75V8C10.75 5.875 11.75 4.5 11.75 4.5C11.0832 3.896 9 3 9 3C7.6055 4 5.8945 4 4.5 3C4.5 3 2.41675 3.896 1.75 4.5C1.75 4.5 2.75 5.875 2.75 8V14.5H1V7.75C1 5.3125 1.75 4.5 1.75 4.5" stroke="black" stroke-width="0.5" stroke-linecap="round" stroke-linejoin="round"/>
<path d="M4.49994 3C4.65919 4.1475 5.61844 5 6.74994 5C7.88144 5 8.84069 4.1475 8.99994 3" stroke="black" stroke-width="0.5" stroke-linecap="round" stroke-linejoin="round"/>
<path d="M11.7501 1V3.25" stroke="black" stroke-width="0.5" stroke-linecap="round" stroke-linejoin="round"/>
<path d="M1.74994 1V3.25" stroke="black" stroke-width="0.5" stroke-linecap="round" stroke-linejoin="round"/>
<path d="M10.2499 1.25L10.7499 1.75L10.2499 2.25" stroke="black" stroke-width="0.5" stroke-linecap="round" stroke-linejoin="round"/>
<path d="M3.25006 1.25L2.75006 1.75L3.25006 2.25" stroke="black" stroke-width="0.5" stroke-linecap="round" stroke-linejoin="round"/>
<path d="M10.7501 1.75H2.75006" stroke="black" stroke-width="0.5" stroke-linecap="round" stroke-linejoin="round"/>
</svg>
