<svg width="14" height="11" viewBox="0 0 14 11" fill="none" xmlns="http://www.w3.org/2000/svg">
<mask id="mask0_2278_535" style="mask-type:luminance" maskUnits="userSpaceOnUse" x="0" y="0" width="14" height="11">
<path fill-rule="evenodd" clip-rule="evenodd" d="M0 0H14V10.8158H0V0Z" fill="white"/>
</mask>
<g mask="url(#mask0_2278_535)">
<path fill-rule="evenodd" clip-rule="evenodd" d="M1.49808 0.51298C0.954767 0.51298 0.512695 0.955052 0.512695 1.49837V9.31738C0.512695 9.86076 0.954767 10.3028 1.49808 10.3028H12.5013C13.0447 10.3028 13.4868 9.86076 13.4868 9.31738V1.49837C13.4868 0.955052 13.0447 0.51298 12.5013 0.51298H1.49808ZM12.5016 10.8158H1.49834C0.672132 10.8158 0 10.1436 0 9.31736V1.49834C0 0.672196 0.672132 0 1.49834 0H12.5016C13.3279 0 14 0.672196 14 1.49834V9.31736C14 10.1436 13.3279 10.8158 12.5016 10.8158Z" fill="black"/>
</g>
<path fill-rule="evenodd" clip-rule="evenodd" d="M8.09245 8.34403C7.84485 8.34403 7.59678 8.26375 7.3899 8.10194C7.37749 8.09223 7.36598 8.08143 7.35553 8.06956L3.96024 4.21804C3.75669 4.0697 3.48486 4.05774 3.26929 4.18671L0.444701 7.24547L0.0678711 6.89746L2.91532 3.81389C2.92927 3.79876 2.94504 3.78536 2.96232 3.77394C3.37191 3.50326 3.90702 3.52455 4.2937 3.8271C4.30607 3.83681 4.31761 3.84765 4.32806 3.85948L7.72325 7.71104C7.96008 7.88349 8.28657 7.86945 8.50734 7.67452L10.2981 6.09642C10.7052 5.73735 11.3138 5.71632 11.7449 6.04631L13.8991 7.69456L13.5876 8.10194L11.4333 6.45369C11.1957 6.27223 10.8612 6.28374 10.6372 6.48123L8.84646 8.05937C8.63182 8.24858 8.36233 8.34403 8.09245 8.34403Z" fill="black"/>
<path fill-rule="evenodd" clip-rule="evenodd" d="M8.03997 2.27986C7.49422 2.27986 7.05013 2.72388 7.05013 3.26964C7.05013 3.81545 7.49422 4.25948 8.03997 4.25948C8.58573 4.25948 9.02982 3.81545 9.02982 3.26964C9.02982 2.72388 8.58573 2.27986 8.03997 2.27986ZM8.0404 4.77238C7.21172 4.77238 6.5376 4.09826 6.5376 3.26958C6.5376 2.44097 7.21172 1.76685 8.0404 1.76685C8.86908 1.76685 9.5432 2.44097 9.5432 3.26958C9.5432 4.09826 8.86908 4.77238 8.0404 4.77238Z" fill="black"/>
</svg>
