<svg width="13" height="9" viewBox="0 0 13 9" fill="none" xmlns="http://www.w3.org/2000/svg">
<path d="M4.00408 4.39546C1.26239 4.39546 0.478432 3.028 1.32294 1.91325C2.07222 0.924168 4.6659 0.704295 5.92183 1.42204C6.86686 1.96212 6.64483 2.88689 5.57817 3.19326C4.76518 3.42679 3.71363 3.44098 3.03541 3.23875C2.3608 3.03759 2.38372 2.38618 3.09502 2.21905C3.62353 2.09487 4.5403 2.1697 4.9814 2.34484V3.23875" stroke="white" stroke-width="0.5"/>
<path d="M1 2.79974C1 4.47815 1.02196 6.23575 1.00301 6.49762C0.939133 7.38138 1.8891 8.19514 4.00408 8.19514" stroke="white" stroke-width="0.5"/>
<path d="M4.00439 8.19514C6.90176 8.19514 9.04236 6.06104 12.0003 7.59034V3.79067C9.04236 2.26138 6.90176 4.39548 4.00439 4.39548" stroke="white" stroke-width="0.5"/>
<path d="M6.54391 2.1554V3.95531" stroke="white" stroke-width="0.5"/>
<path d="M2.57174 2.69775V4.24375" stroke="white" stroke-width="0.5"/>
<path d="M2.31393 7.10779V7.95743" stroke="white" stroke-width="0.5" stroke-linecap="round"/>
<path d="M3.91647 6.44647V8.19515" stroke="white" stroke-width="0.5" stroke-linecap="round"/>
<path d="M5.51852 7.17346V8.0231" stroke="white" stroke-width="0.5" stroke-linecap="round"/>
<path d="M7.12057 5.82526V7.57393" stroke="white" stroke-width="0.5" stroke-linecap="round"/>
<path d="M8.72311 6.30157V7.15121" stroke="white" stroke-width="0.5" stroke-linecap="round"/>
<path d="M10.3252 5.30957V7.05825" stroke="white" stroke-width="0.5" stroke-linecap="round"/>
</svg>
