<svg width="10" height="8" viewBox="0 0 10 8" fill="none" xmlns="http://www.w3.org/2000/svg">
<path fill-rule="evenodd" clip-rule="evenodd" d="M1.07839 4.13517C0.990707 2.40938 2.03934 0.82806 3.66355 0.237392C5.28773 -0.353475 7.10719 0.184515 8.14896 1.56343C7.15709 0.67672 5.73506 0.458886 4.52351 1.00853C3.31185 1.5581 2.53878 2.77112 2.55268 4.10159C3.1335 4.09577 3.42404 4.09282 3.42404 4.09282C2.40636 5.65567 1.89526 6.40344 1.89112 6.33598C0.630411 4.90495 0 4.18967 0 4.18967L1.07839 4.13517Z" fill="white"/>
<path fill-rule="evenodd" clip-rule="evenodd" d="M8.92129 3.8565C9.009 5.58264 7.96031 7.1639 6.3363 7.75454C4.71209 8.34541 2.89277 7.80742 1.85083 6.42859C2.8427 7.3153 4.26462 7.53279 5.47628 6.98343C6.68809 6.43386 7.46102 5.22061 7.44726 3.89038C6.86629 3.89619 6.57578 3.89914 6.57578 3.89914C7.59346 2.33635 8.10442 1.58852 8.10867 1.65598C9.36955 3.08704 9.99999 3.80227 9.99999 3.80227C9.27282 3.84726 8.91337 3.86524 8.92129 3.85648" fill="white"/>
</svg>
