<svg width="13" height="13" viewBox="0 0 13 13" fill="none" xmlns="http://www.w3.org/2000/svg">
<g clip-path="url(#clip0_2367_550)">
<path d="M6.5 13C2.91537 13 0 10.0846 0 6.5C0 2.91537 2.91537 0 6.5 0C10.0846 0 13 2.91537 13 6.5C13 10.0846 10.0846 13 6.5 13ZM6.5 0.481481C3.18019 0.481481 0.481481 3.18019 0.481481 6.5C0.481481 9.81981 3.18019 12.5185 6.5 12.5185C9.81981 12.5185 12.5185 9.81981 12.5185 6.5C12.5185 3.18019 9.81981 0.481481 6.5 0.481481Z" fill="#37393B"/>
<path d="M6.7409 8.66669H6.25942V6.74077H6.50016C7.42942 6.74077 8.18535 5.98484 8.18535 5.05558C8.18535 4.12632 7.42942 3.3704 6.50016 3.3704C5.5709 3.3704 4.81498 4.12632 4.81498 5.05558V5.53706H4.3335V5.05558C4.3335 3.86151 5.30609 2.88892 6.50016 2.88892C7.69424 2.88892 8.66683 3.86151 8.66683 5.05558C8.66683 6.1678 7.82183 7.08984 6.7409 7.2078V8.66669Z" fill="#37393B"/>
<path d="M6.74076 9.62964H6.25928V10.1111H6.74076V9.62964Z" fill="#37393B"/>
</g>
<defs>
<clipPath id="clip0_2367_550">
<rect width="13" height="13" fill="white"/>
</clipPath>
</defs>
</svg>
