<svg width="34" height="34" viewBox="0 0 34 34" fill="none" xmlns="http://www.w3.org/2000/svg">
<g clip-path="url(#clip0_2367_569)">
<path d="M17 34C7.62481 34 0 26.3752 0 17C0 7.62481 7.62481 0 17 0C26.3752 0 34 7.62481 34 17C34 26.3752 26.3752 34 17 34ZM17 1.25926C8.31741 1.25926 1.25926 8.31741 1.25926 17C1.25926 25.6826 8.31741 32.7407 17 32.7407C25.6826 32.7407 32.7407 25.6826 32.7407 17C32.7407 8.31741 25.6826 1.25926 17 1.25926Z" fill="black"/>
<path d="M17.6298 22.6667H16.3705V17.6296H17.0002C19.4305 17.6296 21.4076 15.6526 21.4076 13.2222C21.4076 10.7918 19.4305 8.8148 17.0002 8.8148C14.5698 8.8148 12.5928 10.7918 12.5928 13.2222V14.4815H11.3335V13.2222C11.3335 10.0992 13.8772 7.55554 17.0002 7.55554C20.1231 7.55554 22.6668 10.0992 22.6668 13.2222C22.6668 16.1311 20.4568 18.5426 17.6298 18.8511V22.6667Z" fill="black"/>
<path d="M17.6299 25.1852H16.3706V26.4444H17.6299V25.1852Z" fill="black"/>
</g>
<defs>
<clipPath id="clip0_2367_569">
<rect width="34" height="34" fill="white"/>
</clipPath>
</defs>
</svg>
